<svg width="994" height="201" viewBox="0 0 994 201" fill="none" xmlns="http://www.w3.org/2000/svg">
<path d="M746 53H938V179H746V53Z" fill="#A6A6A6" fill-opacity="0.09"/>
<mask id="path-2-outside-1_1238_3455" maskUnits="userSpaceOnUse" x="865" y="53" width="73" height="40" fill="black">
<rect fill="white" x="865" y="53" width="73" height="40"/>
<path d="M866 53H938V92H866V53Z"/>
</mask>
<path d="M866 92H865.5V92.5H866V92ZM865.5 53V53.975H866.5V53H865.5ZM865.5 55.925V57.875H866.5V55.925H865.5ZM865.5 59.825V61.775H866.5V59.825H865.5ZM865.5 63.725V65.675H866.5V63.725H865.5ZM865.5 67.625V69.575H866.5V67.625H865.5ZM865.5 71.525V73.475H866.5V71.525H865.5ZM865.5 75.425V77.375H866.5V75.425H865.5ZM865.5 79.325V81.275H866.5V79.325H865.5ZM865.5 83.225V85.175H866.5V83.225H865.5ZM865.5 87.125V89.075H866.5V87.125H865.5ZM865.5 91.025V92H866.5V91.025H865.5ZM866 92.5H867V91.5H866V92.5ZM869 92.5H871V91.5H869V92.5ZM873 92.5H875V91.5H873V92.5ZM877 92.5H879V91.5H877V92.5ZM881 92.5H883V91.5H881V92.5ZM885 92.5H887V91.5H885V92.5ZM889 92.5H891V91.5H889V92.5ZM893 92.5H895V91.5H893V92.5ZM897 92.5H899V91.5H897V92.5ZM901 92.5H903V91.5H901V92.5ZM905 92.5H907V91.5H905V92.5ZM909 92.5H911V91.5H909V92.5ZM913 92.5H915V91.5H913V92.5ZM917 92.5H919V91.5H917V92.5ZM921 92.5H923V91.5H921V92.5ZM925 92.5H927V91.5H925V92.5ZM929 92.5H931V91.5H929V92.5ZM933 92.5H935V91.5H933V92.5ZM937 92.5H938V91.5H937V92.5ZM866 92H865V93H866V92ZM865 53V53.975H867V53H865ZM865 55.925V57.875H867V55.925H865ZM865 59.825V61.775H867V59.825H865ZM865 63.725V65.675H867V63.725H865ZM865 67.625V69.575H867V67.625H865ZM865 71.525V73.475H867V71.525H865ZM865 75.425V77.375H867V75.425H865ZM865 79.325V81.275H867V79.325H865ZM865 83.225V85.175H867V83.225H865ZM865 87.125V89.075H867V87.125H865ZM865 91.025V92H867V91.025H865ZM866 93H867V91H866V93ZM869 93H871V91H869V93ZM873 93H875V91H873V93ZM877 93H879V91H877V93ZM881 93H883V91H881V93ZM885 93H887V91H885V93ZM889 93H891V91H889V93ZM893 93H895V91H893V93ZM897 93H899V91H897V93ZM901 93H903V91H901V93ZM905 93H907V91H905V93ZM909 93H911V91H909V93ZM913 93H915V91H913V93ZM917 93H919V91H917V93ZM921 93H923V91H921V93ZM925 93H927V91H925V93ZM929 93H931V91H929V93ZM933 93H935V91H933V93ZM937 93H938V91H937V93Z" fill="#0A54ED" mask="url(#path-2-outside-1_1238_3455)"/>
<mask id="path-4-outside-2_1238_3455" maskUnits="userSpaceOnUse" x="865" y="139" width="73" height="40" fill="black">
<rect fill="white" x="865" y="139" width="73" height="40"/>
<path d="M866 140H938V179H866V140Z"/>
</mask>
<path d="M866 140V139.5H865.5V140H866ZM865.5 140V140.975H866.5V140H865.5ZM865.5 142.925V144.875H866.5V142.925H865.5ZM865.5 146.825V148.775H866.5V146.825H865.5ZM865.5 150.725V152.675H866.5V150.725H865.5ZM865.5 154.625V156.575H866.5V154.625H865.5ZM865.5 158.525V160.475H866.5V158.525H865.5ZM865.5 162.425V164.375H866.5V162.425H865.5ZM865.5 166.325V168.275H866.5V166.325H865.5ZM865.5 170.225V172.175H866.5V170.225H865.5ZM865.5 174.125V176.075H866.5V174.125H865.5ZM865.5 178.025V179H866.5V178.025H865.5ZM938 139.5H937V140.5H938V139.5ZM935 139.5H933V140.5H935V139.5ZM931 139.5H929V140.5H931V139.5ZM927 139.5H925V140.5H927V139.5ZM923 139.5H921V140.5H923V139.5ZM919 139.5H917V140.5H919V139.5ZM915 139.5H913V140.5H915V139.5ZM911 139.5H909V140.5H911V139.5ZM907 139.5H905V140.5H907V139.5ZM903 139.5H901V140.5H903V139.5ZM899 139.5H897V140.5H899V139.5ZM895 139.5H893V140.5H895V139.5ZM891 139.5H889V140.5H891V139.5ZM887 139.5H885V140.5H887V139.5ZM883 139.5H881V140.5H883V139.5ZM879 139.5H877V140.5H879V139.5ZM875 139.5H873V140.5H875V139.5ZM871 139.5H869V140.5H871V139.5ZM867 139.5H866V140.5H867V139.5ZM866 140V139H865V140H866ZM865 140V140.975H867V140H865ZM865 142.925V144.875H867V142.925H865ZM865 146.825V148.775H867V146.825H865ZM865 150.725V152.675H867V150.725H865ZM865 154.625V156.575H867V154.625H865ZM865 158.525V160.475H867V158.525H865ZM865 162.425V164.375H867V162.425H865ZM865 166.325V168.275H867V166.325H865ZM865 170.225V172.175H867V170.225H865ZM865 174.125V176.075H867V174.125H865ZM865 178.025V179H867V178.025H865ZM938 139H937V141H938V139ZM935 139H933V141H935V139ZM931 139H929V141H931V139ZM927 139H925V141H927V139ZM923 139H921V141H923V139ZM919 139H917V141H919V139ZM915 139H913V141H915V139ZM911 139H909V141H911V139ZM907 139H905V141H907V139ZM903 139H901V141H903V139ZM899 139H897V141H899V139ZM895 139H893V141H895V139ZM891 139H889V141H891V139ZM887 139H885V141H887V139ZM883 139H881V141H883V139ZM879 139H877V141H879V139ZM875 139H873V141H875V139ZM871 139H869V141H871V139ZM867 139H866V141H867V139Z" fill="#0A54ED" mask="url(#path-4-outside-2_1238_3455)"/>
<mask id="path-6-outside-3_1238_3455" maskUnits="userSpaceOnUse" x="746" y="139" width="73" height="40" fill="black">
<rect fill="white" x="746" y="139" width="73" height="40"/>
<path d="M746 140H818V179H746V140Z"/>
</mask>
<path d="M818 140H818.5V139.5H818V140ZM818.5 179V178.025H817.5V179H818.5ZM818.5 176.075V174.125H817.5V176.075H818.5ZM818.5 172.175V170.225H817.5V172.175H818.5ZM818.5 168.275V166.325H817.5V168.275H818.5ZM818.5 164.375V162.425H817.5V164.375H818.5ZM818.5 160.475V158.525H817.5V160.475H818.5ZM818.5 156.575V154.625H817.5V156.575H818.5ZM818.5 152.675V150.725H817.5V152.675H818.5ZM818.5 148.775V146.825H817.5V148.775H818.5ZM818.5 144.875V142.925H817.5V144.875H818.5ZM818.5 140.975V140H817.5V140.975H818.5ZM818 139.5H817V140.5H818V139.5ZM815 139.5H813V140.5H815V139.5ZM811 139.5H809V140.5H811V139.5ZM807 139.5H805V140.5H807V139.5ZM803 139.5H801V140.5H803V139.5ZM799 139.5H797V140.5H799V139.5ZM795 139.5H793V140.5H795V139.5ZM791 139.5H789V140.5H791V139.5ZM787 139.5H785V140.5H787V139.5ZM783 139.5H781V140.5H783V139.5ZM779 139.5H777V140.5H779V139.5ZM775 139.5H773V140.5H775V139.5ZM771 139.5H769V140.5H771V139.5ZM767 139.5H765V140.5H767V139.5ZM763 139.5H761V140.5H763V139.5ZM759 139.5H757V140.5H759V139.5ZM755 139.5H753V140.5H755V139.5ZM751 139.5H749V140.5H751V139.5ZM747 139.5H746V140.5H747V139.5ZM818 140H819V139H818V140ZM819 179V178.025H817V179H819ZM819 176.075V174.125H817V176.075H819ZM819 172.175V170.225H817V172.175H819ZM819 168.275V166.325H817V168.275H819ZM819 164.375V162.425H817V164.375H819ZM819 160.475V158.525H817V160.475H819ZM819 156.575V154.625H817V156.575H819ZM819 152.675V150.725H817V152.675H819ZM819 148.775V146.825H817V148.775H819ZM819 144.875V142.925H817V144.875H819ZM819 140.975V140H817V140.975H819ZM818 139H817V141H818V139ZM815 139H813V141H815V139ZM811 139H809V141H811V139ZM807 139H805V141H807V139ZM803 139H801V141H803V139ZM799 139H797V141H799V139ZM795 139H793V141H795V139ZM791 139H789V141H791V139ZM787 139H785V141H787V139ZM783 139H781V141H783V139ZM779 139H777V141H779V139ZM775 139H773V141H775V139ZM771 139H769V141H771V139ZM767 139H765V141H767V139ZM763 139H761V141H763V139ZM759 139H757V141H759V139ZM755 139H753V141H755V139ZM751 139H749V141H751V139ZM747 139H746V141H747V139Z" fill="#0A54ED" mask="url(#path-6-outside-3_1238_3455)"/>
<mask id="path-8-outside-4_1238_3455" maskUnits="userSpaceOnUse" x="746" y="53" width="73" height="40" fill="black">
<rect fill="white" x="746" y="53" width="73" height="40"/>
<path d="M746 53H818V92H746V53Z"/>
</mask>
<path d="M818 92V92.5H818.5V92H818ZM746 92.5H747V91.5H746V92.5ZM749 92.5H751V91.5H749V92.5ZM753 92.5H755V91.5H753V92.5ZM757 92.5H759V91.5H757V92.5ZM761 92.5H763V91.5H761V92.5ZM765 92.5H767V91.5H765V92.5ZM769 92.5H771V91.5H769V92.5ZM773 92.5H775V91.5H773V92.5ZM777 92.5H779V91.5H777V92.5ZM781 92.5H783V91.5H781V92.5ZM785 92.5H787V91.5H785V92.5ZM789 92.5H791V91.5H789V92.5ZM793 92.5H795V91.5H793V92.5ZM797 92.5H799V91.5H797V92.5ZM801 92.5H803V91.5H801V92.5ZM805 92.5H807V91.5H805V92.5ZM809 92.5H811V91.5H809V92.5ZM813 92.5H815V91.5H813V92.5ZM817 92.5H818V91.5H817V92.5ZM818.5 92V91.025H817.5V92H818.5ZM818.5 89.075V87.125H817.5V89.075H818.5ZM818.5 85.175V83.225H817.5V85.175H818.5ZM818.5 81.275V79.325H817.5V81.275H818.5ZM818.5 77.375V75.425H817.5V77.375H818.5ZM818.5 73.475V71.525H817.5V73.475H818.5ZM818.5 69.575V67.625H817.5V69.575H818.5ZM818.5 65.675V63.725H817.5V65.675H818.5ZM818.5 61.775V59.825H817.5V61.775H818.5ZM818.5 57.875V55.925H817.5V57.875H818.5ZM818.5 53.975V53H817.5V53.975H818.5ZM818 92V93H819V92H818ZM746 93H747V91H746V93ZM749 93H751V91H749V93ZM753 93H755V91H753V93ZM757 93H759V91H757V93ZM761 93H763V91H761V93ZM765 93H767V91H765V93ZM769 93H771V91H769V93ZM773 93H775V91H773V93ZM777 93H779V91H777V93ZM781 93H783V91H781V93ZM785 93H787V91H785V93ZM789 93H791V91H789V93ZM793 93H795V91H793V93ZM797 93H799V91H797V93ZM801 93H803V91H801V93ZM805 93H807V91H805V93ZM809 93H811V91H809V93ZM813 93H815V91H813V93ZM817 93H818V91H817V93ZM819 92V91.025H817V92H819ZM819 89.075V87.125H817V89.075H819ZM819 85.175V83.225H817V85.175H819ZM819 81.275V79.325H817V81.275H819ZM819 77.375V75.425H817V77.375H819ZM819 73.475V71.525H817V73.475H819ZM819 69.575V67.625H817V69.575H819ZM819 65.675V63.725H817V65.675H819ZM819 61.775V59.825H817V61.775H819ZM819 57.875V55.925H817V57.875H819ZM819 53.975V53H817V53.975H819Z" fill="#0A54ED" mask="url(#path-8-outside-4_1238_3455)"/>
<mask id="path-10-outside-5_1238_3455" maskUnits="userSpaceOnUse" x="483" y="91" width="50" height="49" fill="black">
<rect fill="white" x="483" y="91" width="50" height="49"/>
<path d="M484 92H532V139H484V92Z"/>
</mask>
<path d="M484 92V91.5H483.5V92H484ZM532 92H532.5V91.5H532V92ZM532 139V139.5H532.5V139H532ZM484 139H483.5V139.5H484V139ZM483.5 92V92.9792H484.5V92H483.5ZM483.5 94.9375V96.8958H484.5V94.9375H483.5ZM483.5 98.8542V100.812H484.5V98.8542H483.5ZM483.5 102.771V104.729H484.5V102.771H483.5ZM483.5 106.687V108.646H484.5V106.687H483.5ZM483.5 110.604V112.562H484.5V110.604H483.5ZM483.5 114.521V116.479H484.5V114.521H483.5ZM483.5 118.438V120.396H484.5V118.438H483.5ZM483.5 122.354V124.313H484.5V122.354H483.5ZM483.5 126.271V128.229H484.5V126.271H483.5ZM483.5 130.188V132.146H484.5V130.188H483.5ZM483.5 134.104V136.062H484.5V134.104H483.5ZM483.5 138.021V139H484.5V138.021H483.5ZM484 139.5H485V138.5H484V139.5ZM487 139.5H489V138.5H487V139.5ZM491 139.5H493V138.5H491V139.5ZM495 139.5H497V138.5H495V139.5ZM499 139.5H501V138.5H499V139.5ZM503 139.5H505V138.5H503V139.5ZM507 139.5H509V138.5H507V139.5ZM511 139.5H513V138.5H511V139.5ZM515 139.5H517V138.5H515V139.5ZM519 139.5H521V138.5H519V139.5ZM523 139.5H525V138.5H523V139.5ZM527 139.5H529V138.5H527V139.5ZM531 139.5H532V138.5H531V139.5ZM532.5 139V138.021H531.5V139H532.5ZM532.5 136.062V134.104H531.5V136.062H532.5ZM532.5 132.146V130.188H531.5V132.146H532.5ZM532.5 128.229V126.271H531.5V128.229H532.5ZM532.5 124.313V122.354H531.5V124.313H532.5ZM532.5 120.396V118.438H531.5V120.396H532.5ZM532.5 116.479V114.521H531.5V116.479H532.5ZM532.5 112.562V110.604H531.5V112.562H532.5ZM532.5 108.646V106.687H531.5V108.646H532.5ZM532.5 104.729V102.771H531.5V104.729H532.5ZM532.5 100.812V98.8542H531.5V100.812H532.5ZM532.5 96.8958V94.9375H531.5V96.8958H532.5ZM532.5 92.9792V92H531.5V92.9792H532.5ZM532 91.5H531V92.5H532V91.5ZM529 91.5H527V92.5H529V91.5ZM525 91.5H523V92.5H525V91.5ZM521 91.5H519V92.5H521V91.5ZM517 91.5H515V92.5H517V91.5ZM513 91.5H511V92.5H513V91.5ZM509 91.5H507V92.5H509V91.5ZM505 91.5H503V92.5H505V91.5ZM501 91.5H499V92.5H501V91.5ZM497 91.5H495V92.5H497V91.5ZM493 91.5H491V92.5H493V91.5ZM489 91.5H487V92.5H489V91.5ZM485 91.5H484V92.5H485V91.5ZM484 92V91H483V92H484ZM532 92H533V91H532V92ZM532 139V140H533V139H532ZM484 139H483V140H484V139ZM483 92V92.9792H485V92H483ZM483 94.9375V96.8958H485V94.9375H483ZM483 98.8542V100.812H485V98.8542H483ZM483 102.771V104.729H485V102.771H483ZM483 106.687V108.646H485V106.687H483ZM483 110.604V112.562H485V110.604H483ZM483 114.521V116.479H485V114.521H483ZM483 118.438V120.396H485V118.438H483ZM483 122.354V124.313H485V122.354H483ZM483 126.271V128.229H485V126.271H483ZM483 130.188V132.146H485V130.188H483ZM483 134.104V136.062H485V134.104H483ZM483 138.021V139H485V138.021H483ZM484 140H485V138H484V140ZM487 140H489V138H487V140ZM491 140H493V138H491V140ZM495 140H497V138H495V140ZM499 140H501V138H499V140ZM503 140H505V138H503V140ZM507 140H509V138H507V140ZM511 140H513V138H511V140ZM515 140H517V138H515V140ZM519 140H521V138H519V140ZM523 140H525V138H523V140ZM527 140H529V138H527V140ZM531 140H532V138H531V140ZM533 139V138.021H531V139H533ZM533 136.062V134.104H531V136.062H533ZM533 132.146V130.188H531V132.146H533ZM533 128.229V126.271H531V128.229H533ZM533 124.313V122.354H531V124.313H533ZM533 120.396V118.438H531V120.396H533ZM533 116.479V114.521H531V116.479H533ZM533 112.562V110.604H531V112.562H533ZM533 108.646V106.687H531V108.646H533ZM533 104.729V102.771H531V104.729H533ZM533 100.812V98.8542H531V100.812H533ZM533 96.8958V94.9375H531V96.8958H533ZM533 92.9792V92H531V92.9792H533ZM532 91H531V93H532V91ZM529 91H527V93H529V91ZM525 91H523V93H525V91ZM521 91H519V93H521V91ZM517 91H515V93H517V91ZM513 91H511V93H513V91ZM509 91H507V93H509V91ZM505 91H503V93H505V91ZM501 91H499V93H501V91ZM497 91H495V93H497V91ZM493 91H491V93H493V91ZM489 91H487V93H489V91ZM485 91H484V93H485V91Z" fill="#0A54ED" mask="url(#path-10-outside-5_1238_3455)"/>
<path d="M412 53H604V179H412V53Z" fill="#A6A6A6" fill-opacity="0.09"/>
<mask id="path-13-inside-6_1238_3455" fill="white">
<path d="M78 90H270V142H78V90Z"/>
</mask>
<path d="M78 90H270V142H78V90Z" fill="#A6A6A6" fill-opacity="0.09"/>
<path d="M78 93H270V87H78V93ZM270 139H78V145H270V139Z" fill="#256DF8" mask="url(#path-13-inside-6_1238_3455)"/>
<mask id="path-15-inside-7_1238_3455" fill="white">
<path d="M148 179L148 53L200 53L200 179L148 179Z"/>
</mask>
<path d="M148 179L148 53L200 53L200 179L148 179Z" fill="#A6A6A6" fill-opacity="0.09"/>
<path d="M151 179L151 53L145 53L145 179L151 179ZM197 53L197 179L203 179L203 53L197 53Z" fill="#256DF8" mask="url(#path-15-inside-7_1238_3455)"/>
<line x1="78" y1="115.5" x2="270" y2="115.5" stroke="#256DF8" stroke-dasharray="15 15"/>
<line x1="412" y1="115.5" x2="604" y2="115.5" stroke="#256DF8" stroke-dasharray="15 15"/>
<line x1="746" y1="115.5" x2="938" y2="115.5" stroke="#256DF8" stroke-dasharray="15 15"/>
<line x1="173.5" y1="179" x2="173.5" y2="53" stroke="#256DF8" stroke-dasharray="15 15"/>
<line x1="507.5" y1="179" x2="507.5" y2="53" stroke="#256DF8" stroke-dasharray="15 15"/>
<line x1="841.5" y1="179" x2="841.5" y2="53" stroke="#256DF8" stroke-dasharray="15 15"/>
<mask id="path-23-outside-8_1238_3455" maskUnits="userSpaceOnUse" x="531" y="53" width="73" height="40" fill="black">
<rect fill="white" x="531" y="53" width="73" height="40"/>
<path d="M534 53H604V90H534V53Z"/>
</mask>
<path d="M534 53H604V90H534V53Z" fill="white"/>
<path d="M534 90H531V93H534V90ZM604 87H534V93H604V87ZM537 90V53H531V90H537Z" fill="#0A54ED" mask="url(#path-23-outside-8_1238_3455)"/>
<mask id="path-25-outside-9_1238_3455" maskUnits="userSpaceOnUse" x="865" y="53" width="73" height="40" fill="black">
<rect fill="white" x="865" y="53" width="73" height="40"/>
<path d="M868 53H937C937.552 53 938 53.4477 938 54V90H886.5C876.283 90 868 81.7173 868 71.5V53Z"/>
</mask>
<path d="M868 53H937C937.552 53 938 53.4477 938 54V90H886.5C876.283 90 868 81.7173 868 71.5V53Z" fill="white"/>
<path d="M868 53H938H868ZM938 93H886.5C874.626 93 865 83.3741 865 71.5H871C871 80.0604 877.94 87 886.5 87H938V93ZM886.5 93C874.626 93 865 83.3741 865 71.5V53H871V71.5C871 80.0604 877.94 87 886.5 87V93ZM938 53V90V53Z" fill="#0A54ED" mask="url(#path-25-outside-9_1238_3455)"/>
<mask id="path-27-outside-10_1238_3455" maskUnits="userSpaceOnUse" x="531" y="139" width="73" height="40" fill="black">
<rect fill="white" x="531" y="139" width="73" height="40"/>
<path d="M534 142H604V179H534V142Z"/>
</mask>
<path d="M534 142H604V179H534V142Z" fill="white"/>
<path d="M534 142V139H531V142H534ZM534 145H604V139H534V145ZM537 179V142H531V179H537Z" fill="#0A54ED" mask="url(#path-27-outside-10_1238_3455)"/>
<mask id="path-29-outside-11_1238_3455" maskUnits="userSpaceOnUse" x="865" y="139" width="73" height="40" fill="black">
<rect fill="white" x="865" y="139" width="73" height="40"/>
<path d="M868 160.5C868 150.283 876.283 142 886.5 142H938V179H868V160.5Z"/>
</mask>
<path d="M868 160.5C868 150.283 876.283 142 886.5 142H938V179H868V160.5Z" fill="white"/>
<path d="M865 160.5C865 148.626 874.626 139 886.5 139H938V145H886.5C877.94 145 871 151.94 871 160.5H865ZM938 179H868H938ZM865 179V160.5C865 148.626 874.626 139 886.5 139V145C877.94 145 871 151.94 871 160.5V179H865ZM938 142V179V142Z" fill="#0A54ED" mask="url(#path-29-outside-11_1238_3455)"/>
<mask id="path-31-outside-12_1238_3455" maskUnits="userSpaceOnUse" x="412" y="139" width="73" height="40" fill="black">
<rect fill="white" x="412" y="139" width="73" height="40"/>
<path d="M412 142H482V179H412V142Z"/>
</mask>
<path d="M412 142H482V179H412V142Z" fill="white"/>
<path d="M482 142H485V139H482V142ZM412 145H482V139H412V145ZM479 142V179H485V142H479Z" fill="#0A54ED" mask="url(#path-31-outside-12_1238_3455)"/>
<mask id="path-33-outside-13_1238_3455" maskUnits="userSpaceOnUse" x="746" y="139" width="73" height="40" fill="black">
<rect fill="white" x="746" y="139" width="73" height="40"/>
<path d="M746 142H797.5C807.717 142 816 150.283 816 160.5V179H746V142Z"/>
</mask>
<path d="M746 142H797.5C807.717 142 816 150.283 816 160.5V179H746V142Z" fill="white"/>
<path d="M746 139H797.5C809.374 139 819 148.626 819 160.5H813C813 151.94 806.06 145 797.5 145H746V139ZM816 179H746H816ZM746 179V142V179ZM797.5 139C809.374 139 819 148.626 819 160.5V179H813V160.5C813 151.94 806.06 145 797.5 145V139Z" fill="#0A54ED" mask="url(#path-33-outside-13_1238_3455)"/>
<mask id="path-35-outside-14_1238_3455" maskUnits="userSpaceOnUse" x="412" y="53" width="73" height="40" fill="black">
<rect fill="white" x="412" y="53" width="73" height="40"/>
<path d="M412 53H482V90H412V53Z"/>
</mask>
<path d="M412 53H482V90H412V53Z" fill="white"/>
<path d="M482 90V93H485V90H482ZM479 53V90H485V53H479ZM482 87H412V93H482V87Z" fill="#0A54ED" mask="url(#path-35-outside-14_1238_3455)"/>
<mask id="path-37-outside-15_1238_3455" maskUnits="userSpaceOnUse" x="746" y="53" width="73" height="40" fill="black">
<rect fill="white" x="746" y="53" width="73" height="40"/>
<path d="M746 53H816V71.5C816 81.7173 807.717 90 797.5 90H746V53Z"/>
</mask>
<path d="M746 53H816V71.5C816 81.7173 807.717 90 797.5 90H746V53Z" fill="white"/>
<path d="M746 53H816H746ZM819 71.5C819 83.3741 809.374 93 797.5 93H746V87H797.5C806.06 87 813 80.0604 813 71.5H819ZM746 90V53V90ZM819 53V71.5C819 83.3741 809.374 93 797.5 93V87C806.06 87 813 80.0604 813 71.5V53H819Z" fill="#0A54ED" mask="url(#path-37-outside-15_1238_3455)"/>
<circle cx="87" cy="25" r="9" fill="#256DF8"/>
<path d="M88.5687 20.844V29.5713H86.7235V22.5954H86.6724L84.6738 23.8483V22.2119L86.8343 20.844H88.5687Z" fill="white"/>
<circle cx="421" cy="25" r="9" fill="#256DF8"/>
<path d="M417.928 29.5713V28.2417L421.035 25.3653C421.299 25.1096 421.52 24.8795 421.699 24.675C421.881 24.4704 422.019 24.2702 422.113 24.0741C422.206 23.8753 422.253 23.6608 422.253 23.4307C422.253 23.175 422.195 22.9548 422.079 22.7702C421.962 22.5827 421.803 22.4392 421.601 22.3398C421.4 22.2375 421.171 22.1863 420.915 22.1863C420.648 22.1863 420.415 22.2403 420.216 22.3483C420.018 22.4562 419.864 22.6111 419.756 22.8128C419.648 23.0145 419.594 23.2545 419.594 23.5329H417.843C417.843 22.9619 417.972 22.4662 418.231 22.0457C418.489 21.6253 418.851 21.3 419.317 21.0699C419.783 20.8398 420.32 20.7247 420.928 20.7247C421.553 20.7247 422.097 20.8355 422.56 21.0571C423.026 21.2758 423.388 21.5798 423.647 21.969C423.905 22.3582 424.035 22.8042 424.035 23.3071C424.035 23.6366 423.969 23.9619 423.839 24.2829C423.711 24.604 423.482 24.9605 423.153 25.3525C422.823 25.7417 422.358 26.2091 421.759 26.7545L420.485 28.0031V28.0628H424.15V29.5713H417.928Z" fill="white"/>
<circle cx="755" cy="25" r="9" fill="#256DF8"/>
<path d="M751.928 29.5713V28.2417L755.035 25.3653C755.299 25.1096 755.52 24.8795 755.699 24.675C755.881 24.4704 756.019 24.2702 756.113 24.0741C756.206 23.8753 756.253 23.6608 756.253 23.4307C756.253 23.175 756.195 22.9548 756.079 22.7702C755.962 22.5827 755.803 22.4392 755.601 22.3398C755.4 22.2375 755.171 22.1863 754.915 22.1863C754.648 22.1863 754.415 22.2403 754.216 22.3483C754.018 22.4562 753.864 22.6111 753.756 22.8128C753.648 23.0145 753.594 23.2545 753.594 23.5329H751.843C751.843 22.9619 751.972 22.4662 752.231 22.0457C752.489 21.6253 752.851 21.3 753.317 21.0699C753.783 20.8398 754.32 20.7247 754.928 20.7247C755.553 20.7247 756.097 20.8355 756.56 21.0571C757.026 21.2758 757.388 21.5798 757.647 21.969C757.905 22.3582 758.035 22.8042 758.035 23.3071C758.035 23.6366 757.969 23.9619 757.839 24.2829C757.711 24.604 757.482 24.9605 757.153 25.3525C756.823 25.7417 756.358 26.2091 755.759 26.7545L754.485 28.0031V28.0628H758.15V29.5713H751.928Z" fill="white"/>
<path d="M114.016 23.938L115.136 24.246C113.596 28.152 110.516 30.098 106.218 31.176C106.106 30.91 105.77 30.434 105.546 30.182C109.788 29.3 112.728 27.48 114.016 23.938ZM109.452 21.53L110.516 21.936C109.522 23.28 107.954 24.596 106.596 25.45C106.414 25.226 106.008 24.806 105.742 24.61C107.114 23.882 108.598 22.72 109.452 21.53ZM110.012 24.008C111.314 27.326 114.156 29.412 118.496 30.126C118.258 30.364 117.95 30.84 117.796 31.134C113.33 30.28 110.516 28.04 109.018 24.316L110.012 24.008ZM105.854 20.074H118.146V21.096H105.854V20.074ZM111.426 18.226H112.504V20.732H111.426V18.226ZM113.638 22.118L114.506 21.474C115.822 22.356 117.474 23.658 118.272 24.582L117.362 25.31C116.606 24.386 114.982 23.028 113.638 22.118ZM124.348 21.978L125.118 21.376C125.902 22.02 126.91 22.958 127.386 23.56L126.588 24.232C126.126 23.616 125.146 22.664 124.348 21.978ZM122.668 20.858C124.166 25.59 127.302 28.964 132.594 30.154C132.342 30.406 132.02 30.854 131.866 31.148C126.434 29.79 123.354 26.304 121.66 21.166L122.668 20.858ZM120.316 19.57H130.242V20.606H120.316V19.57ZM129.906 19.57H130.116L130.312 19.514L131.04 19.864C129.43 26.262 125.202 29.636 120.176 31.162C120.05 30.882 119.728 30.392 119.49 30.168C124.446 28.782 128.492 25.688 129.906 19.794V19.57Z" fill="#696969"/>
<path d="M444.6 19.472L451.53 19.472V20.48H444.6V19.472ZM451.082 19.472L452.16 19.472C452.16 19.472 452.146 19.92 452.146 20.074C451.978 27.256 451.81 29.636 451.278 30.35C450.956 30.784 450.648 30.91 450.172 30.98C449.71 31.036 448.94 31.022 448.198 30.966C448.17 30.658 448.044 30.196 447.862 29.888C448.674 29.958 449.416 29.958 449.724 29.958C449.99 29.972 450.13 29.916 450.284 29.72C450.732 29.188 450.928 26.668 451.082 19.752V19.472ZM439.392 22.748L445.314 21.502L445.496 22.44L439.588 23.714L439.392 22.748ZM441.1 18.646H442.136V26.878C442.136 27.382 442.192 27.452 442.57 27.452C442.738 27.452 443.592 27.452 443.83 27.452C444.18 27.452 444.236 27.102 444.292 25.45C444.516 25.646 444.936 25.828 445.23 25.912C445.118 27.858 444.866 28.46 443.914 28.46C443.676 28.46 442.626 28.46 442.416 28.46C441.366 28.46 441.1 28.11 441.1 26.864V18.646ZM447.092 19.92H448.128C448.044 24.526 447.876 28.922 444.068 31.176C443.914 30.91 443.578 30.546 443.312 30.35C446.938 28.334 447.008 24.19 447.092 19.92ZM462.002 19.766H462.996V27.48H462.002V19.766ZM464.858 18.492H465.894V29.678C465.894 30.392 465.726 30.7 465.278 30.882C464.844 31.05 464.046 31.092 462.954 31.092C462.912 30.784 462.758 30.294 462.604 29.972C463.458 30.014 464.284 30 464.564 30C464.788 29.986 464.858 29.916 464.858 29.678V18.492ZM455.114 29.538L459.818 29.538V30.378L455.114 30.378V29.538ZM453.77 25.142L461.008 25.142V25.982L453.77 25.982V25.142ZM454.54 21.698H460.35V22.496H454.54V21.698ZM454.61 23.406H460.182V24.176L454.61 24.176V23.406ZM456.906 18.282H457.928V20.018H456.906V18.282ZM456.934 20.788H457.914V25.604H456.934V20.788ZM454.61 26.752L460.364 26.752V30.938H459.37V27.578H455.576V31.092L454.61 31.092V26.752ZM453.77 19.542H461.162V21.754H460.182V20.382H454.708V21.754H453.77V19.542Z" fill="#696969"/>
<path d="M779.118 24.008H780.098V29.58H779.118V24.008ZM782.59 20.074H783.5V27.746H782.59V20.074ZM777.13 19.052H782.226V19.948H777.13V19.052ZM777.102 25.674H782.03V26.598H777.102V25.674ZM776.794 22.86C778.026 22.79 779.804 22.664 781.61 22.524L781.624 23.392C779.916 23.546 778.194 23.686 776.892 23.812L776.794 22.86ZM776.682 29.496C778.124 29.314 780.28 28.964 782.352 28.628L782.408 29.51C780.42 29.874 778.376 30.224 776.85 30.476L776.682 29.496ZM780.21 21.194L780.966 20.928C781.582 21.866 782.17 23.112 782.38 23.91L781.568 24.232C781.372 23.434 780.798 22.146 780.21 21.194ZM778.754 19.388L779.818 19.64C779.412 20.844 778.866 22.37 778.418 23.294L777.62 23.056C778.04 22.09 778.516 20.494 778.754 19.388ZM785.012 18.492L785.964 18.492V29.846C785.964 30.476 785.824 30.77 785.46 30.938C785.096 31.12 784.494 31.148 783.626 31.148C783.584 30.882 783.43 30.42 783.29 30.112C783.962 30.14 784.564 30.126 784.76 30.126C784.942 30.126 785.012 30.07 785.012 29.86V18.492ZM776.248 18.324L777.228 18.59C776.43 20.998 775.184 23.448 773.798 25.072C773.7 24.834 773.42 24.274 773.238 24.008C774.47 22.608 775.576 20.466 776.248 18.324ZM775.128 21.754L776.066 20.802L776.094 20.83V31.12H775.128V21.754ZM788.134 18.814H799.866V31.106H798.802V19.71H789.156V31.106H788.134V18.814ZM788.764 29.706L799.39 29.706V30.574L788.764 30.574V29.706ZM791.718 21.18V22.244H796.184V21.18H791.718ZM790.78 20.438H797.164V22.986H790.78V20.438ZM793.566 25.072H794.504V25.926C794.504 27.032 794.028 28.46 790.122 29.37C790.01 29.146 789.744 28.768 789.548 28.572C793.272 27.844 793.566 26.696 793.566 25.898V25.072ZM794.294 27.746L794.714 27.074C795.806 27.522 797.29 28.208 798.088 28.642L797.64 29.426C796.898 28.964 795.4 28.236 794.294 27.746ZM790.444 23.826H797.514V27.382H796.52V24.652H791.396V27.438H790.444V23.826ZM804.248 21.446H812.704V22.398H804.248V21.446ZM804.248 24.246H812.536V25.156H804.248V24.246ZM804.01 27.116H812.592V28.04H804.01V27.116ZM803.674 21.446H804.696V24.96C804.696 26.948 804.332 29.524 802.19 31.19C802.05 30.98 801.672 30.602 801.462 30.448C803.45 28.908 803.674 26.738 803.674 24.946V21.446ZM812.144 21.446H813.194V29.79C813.194 30.476 813.012 30.812 812.494 30.966C811.962 31.134 811.038 31.148 809.624 31.148C809.568 30.868 809.372 30.406 809.218 30.126C810.338 30.168 811.43 30.168 811.752 30.14C812.06 30.14 812.144 30.056 812.144 29.79V21.446ZM807.804 21.838H808.798V27.578H807.804V21.838ZM805.578 19.066H809.988V19.962H805.578V19.066ZM805.718 18.212L806.852 18.408C805.928 20.074 804.528 21.936 802.54 23.378C802.372 23.126 802.036 22.776 801.784 22.622C803.674 21.348 805.004 19.612 805.718 18.212ZM809.638 19.066H809.862L810.044 19.024L810.744 19.486C810.268 20.424 809.47 21.516 808.826 22.202C808.63 22.048 808.294 21.838 808.07 21.712C808.658 21.082 809.316 20.004 809.638 19.262V19.066Z" fill="#696969"/>
</svg>
