<svg width="994" height="201" viewBox="0 0 994 201" fill="none" xmlns="http://www.w3.org/2000/svg">
<rect x="91" y="43" width="44" height="38" rx="6" fill="#D9D9D9" fill-opacity="0.35" stroke="#256DF8" stroke-width="2"/>
<rect x="447" y="44" width="69" height="60" rx="6" fill="#D9D9D9" fill-opacity="0.35" stroke="#256DF8" stroke-width="2"/>
<rect x="765" y="43" width="154" height="134" rx="16" fill="#D9D9D9" fill-opacity="0.35" stroke="#256DF8" stroke-width="2"/>
<rect x="141" y="43" width="44" height="38" rx="6" fill="#D9D9D9" fill-opacity="0.35" stroke="#256DF8" stroke-width="2"/>
<rect x="524" y="44" width="69" height="60" rx="6" fill="#D9D9D9" fill-opacity="0.35" stroke="#256DF8" stroke-width="2"/>
<rect x="194" y="139" width="44" height="38" rx="6" fill="#D9D9D9" fill-opacity="0.35" stroke="#256DF8" stroke-width="2"/>
<rect x="194" y="43" width="44" height="86" rx="6" fill="#D9D9D9" fill-opacity="0.35" stroke="#256DF8" stroke-width="2"/>
<rect x="91" y="91" width="44" height="38" rx="6" fill="#D9D9D9" fill-opacity="0.35" stroke="#256DF8" stroke-width="2"/>
<rect x="447" y="118" width="69" height="60" rx="6" fill="#D9D9D9" fill-opacity="0.35" stroke="#256DF8" stroke-width="2"/>
<rect x="141" y="91" width="44" height="38" rx="6" fill="#D9D9D9" fill-opacity="0.35" stroke="#256DF8" stroke-width="2"/>
<rect x="524" y="118" width="69" height="60" rx="6" fill="#D9D9D9" fill-opacity="0.35" stroke="#256DF8" stroke-width="2"/>
<rect x="91" y="139" width="94" height="38" rx="6" fill="#D9D9D9" fill-opacity="0.35" stroke="#256DF8" stroke-width="2"/>
<line x1="73" y1="134.75" x2="254" y2="134.75" stroke="#256DF8" stroke-width="0.5" stroke-dasharray="5 5"/>
<line x1="190.25" y1="32" x2="190.25" y2="185" stroke="#256DF8" stroke-width="0.5" stroke-dasharray="5 5"/>
<line x1="764" y1="110.5" x2="920" y2="110.5" stroke="#256DF8"/>
<path d="M114.077 56.3636V68H112.668V57.8409H112.599L109.759 59.7273V58.2955L112.668 56.3636H114.077Z" fill="#696969"/>
<path d="M476.178 68.3636V80H474.769V69.8409H474.701L471.86 71.7273V70.2955L474.769 68.3636H476.178ZM484.548 73.5568V74.8068H479.457V73.5568H484.548ZM490.975 68.3636V80H489.566V69.8409H489.498L486.657 71.7273V70.2955L489.566 68.3636H490.975Z" fill="#696969"/>
<path d="M828.78 73.3636V85H827.371V74.8409H827.303L824.462 76.7273V75.2955L827.371 73.3636H828.78ZM837.149 78.5568V79.8068H832.058V78.5568H837.149ZM843.577 73.3636V85H842.168V74.8409H842.099L839.259 76.7273V75.2955L842.168 73.3636H843.577ZM851.946 78.5568V79.8068H846.855V78.5568H851.946ZM858.374 73.3636V85H856.964V74.8409H856.896L854.055 76.7273V75.2955L856.964 73.3636H858.374Z" fill="#696969"/>
<path d="M798.928 137.364V149H797.519V138.841H797.451L794.61 140.727V139.295L797.519 137.364H798.928ZM807.298 142.557V143.807H802.207V142.557H807.298ZM813.725 137.364V149H812.316V138.841H812.248L809.407 140.727V139.295L812.316 137.364H813.725ZM822.094 142.557V143.807H817.004V142.557H822.094ZM823.884 149V147.977L827.725 143.773C828.176 143.28 828.547 142.852 828.839 142.489C829.13 142.121 829.346 141.777 829.487 141.455C829.63 141.129 829.702 140.788 829.702 140.432C829.702 140.023 829.604 139.669 829.407 139.369C829.214 139.07 828.949 138.839 828.612 138.676C828.274 138.513 827.896 138.432 827.475 138.432C827.028 138.432 826.638 138.525 826.305 138.71C825.975 138.892 825.719 139.148 825.538 139.477C825.36 139.807 825.271 140.193 825.271 140.636H823.93C823.93 139.955 824.087 139.356 824.401 138.841C824.716 138.326 825.144 137.924 825.685 137.636C826.231 137.348 826.843 137.205 827.521 137.205C828.202 137.205 828.807 137.348 829.333 137.636C829.86 137.924 830.272 138.312 830.572 138.801C830.871 139.29 831.021 139.833 831.021 140.432C831.021 140.86 830.943 141.278 830.788 141.688C830.636 142.093 830.371 142.545 829.992 143.045C829.617 143.542 829.096 144.148 828.43 144.864L825.816 147.659V147.75H831.225V149H823.884Z" fill="#696969"/>
<path d="M875.499 137.364V149H874.089V138.841H874.021L871.18 140.727V139.295L874.089 137.364H875.499ZM883.868 142.557V143.807H878.777V142.557H883.868ZM890.295 137.364V149H888.886V138.841H888.818L885.977 140.727V139.295L888.886 137.364H890.295ZM898.665 142.557V143.807H893.574V142.557H898.665ZM904.746 149.159C903.996 149.159 903.327 149.03 902.74 148.773C902.157 148.515 901.693 148.157 901.348 147.699C901.007 147.237 900.821 146.701 900.791 146.091H902.223C902.253 146.466 902.382 146.79 902.609 147.062C902.837 147.331 903.134 147.54 903.501 147.688C903.869 147.835 904.276 147.909 904.723 147.909C905.223 147.909 905.666 147.822 906.053 147.648C906.439 147.473 906.742 147.231 906.962 146.92C907.181 146.61 907.291 146.25 907.291 145.841C907.291 145.413 907.185 145.036 906.973 144.71C906.761 144.381 906.45 144.123 906.041 143.938C905.632 143.752 905.132 143.659 904.541 143.659H903.609V142.409H904.541C905.003 142.409 905.409 142.326 905.757 142.159C906.109 141.992 906.384 141.758 906.581 141.455C906.782 141.152 906.882 140.795 906.882 140.386C906.882 139.992 906.795 139.65 906.621 139.358C906.446 139.066 906.2 138.839 905.882 138.676C905.568 138.513 905.196 138.432 904.768 138.432C904.367 138.432 903.988 138.506 903.632 138.653C903.28 138.797 902.992 139.008 902.768 139.284C902.545 139.557 902.424 139.886 902.405 140.273H901.041C901.064 139.663 901.248 139.129 901.592 138.67C901.937 138.208 902.388 137.848 902.945 137.591C903.505 137.333 904.121 137.205 904.791 137.205C905.511 137.205 906.128 137.35 906.643 137.642C907.159 137.93 907.554 138.311 907.831 138.784C908.107 139.258 908.246 139.769 908.246 140.318C908.246 140.973 908.073 141.532 907.729 141.994C907.388 142.456 906.924 142.777 906.337 142.955V143.045C907.071 143.167 907.645 143.479 908.058 143.983C908.471 144.483 908.678 145.102 908.678 145.841C908.678 146.473 908.505 147.042 908.161 147.545C907.82 148.045 907.354 148.439 906.763 148.727C906.172 149.015 905.5 149.159 904.746 149.159Z" fill="#696969"/>
<path d="M552.327 68.3636V80H550.918V69.8409H550.849L548.009 71.7273V70.2955L550.918 68.3636H552.327ZM560.696 73.5568V74.8068H555.605V73.5568H560.696ZM562.486 80V78.9773L566.327 74.7727C566.777 74.2803 567.149 73.8523 567.44 73.4886C567.732 73.1212 567.948 72.7765 568.088 72.4545C568.232 72.1288 568.304 71.7879 568.304 71.4318C568.304 71.0227 568.205 70.6686 568.009 70.3693C567.815 70.0701 567.55 69.839 567.213 69.6761C566.876 69.5133 566.497 69.4318 566.077 69.4318C565.63 69.4318 565.24 69.5246 564.906 69.7102C564.577 69.892 564.321 70.1477 564.139 70.4773C563.961 70.8068 563.872 71.1932 563.872 71.6364H562.531C562.531 70.9545 562.688 70.3561 563.003 69.8409C563.317 69.3258 563.745 68.9242 564.287 68.6364C564.832 68.3485 565.444 68.2045 566.122 68.2045C566.804 68.2045 567.408 68.3485 567.935 68.6364C568.461 68.9242 568.874 69.3125 569.173 69.8011C569.473 70.2898 569.622 70.8333 569.622 71.4318C569.622 71.8598 569.545 72.2784 569.389 72.6875C569.238 73.0928 568.973 73.5455 568.594 74.0455C568.219 74.5417 567.698 75.1477 567.031 75.8636L564.418 78.6591V78.75H569.827V80H562.486Z" fill="#696969"/>
<path d="M474.897 142.364V154H473.488V143.841H473.42L470.579 145.727V144.295L473.488 142.364H474.897ZM483.266 147.557V148.807H478.175V147.557H483.266ZM489.347 154.159C488.597 154.159 487.929 154.03 487.342 153.773C486.758 153.515 486.294 153.157 485.95 152.699C485.609 152.237 485.423 151.701 485.393 151.091H486.825C486.855 151.466 486.984 151.79 487.211 152.062C487.438 152.331 487.736 152.54 488.103 152.688C488.47 152.835 488.878 152.909 489.325 152.909C489.825 152.909 490.268 152.822 490.654 152.648C491.04 152.473 491.344 152.231 491.563 151.92C491.783 151.61 491.893 151.25 491.893 150.841C491.893 150.413 491.787 150.036 491.575 149.71C491.362 149.381 491.052 149.123 490.643 148.938C490.234 148.752 489.734 148.659 489.143 148.659H488.211V147.409H489.143C489.605 147.409 490.01 147.326 490.359 147.159C490.711 146.992 490.986 146.758 491.183 146.455C491.383 146.152 491.484 145.795 491.484 145.386C491.484 144.992 491.397 144.65 491.222 144.358C491.048 144.066 490.802 143.839 490.484 143.676C490.169 143.513 489.798 143.432 489.37 143.432C488.969 143.432 488.59 143.506 488.234 143.653C487.881 143.797 487.594 144.008 487.37 144.284C487.147 144.557 487.025 144.886 487.006 145.273H485.643C485.665 144.663 485.849 144.129 486.194 143.67C486.539 143.208 486.989 142.848 487.546 142.591C488.107 142.333 488.722 142.205 489.393 142.205C490.112 142.205 490.73 142.35 491.245 142.642C491.76 142.93 492.156 143.311 492.433 143.784C492.709 144.258 492.847 144.769 492.847 145.318C492.847 145.973 492.675 146.532 492.33 146.994C491.989 147.456 491.525 147.777 490.938 147.955V148.045C491.673 148.167 492.247 148.479 492.66 148.983C493.073 149.483 493.279 150.102 493.279 150.841C493.279 151.473 493.107 152.042 492.762 152.545C492.421 153.045 491.955 153.439 491.364 153.727C490.773 154.015 490.101 154.159 489.347 154.159Z" fill="#696969"/>
<path d="M551.764 142.364V154H550.355V143.841H550.287L547.446 145.727V144.295L550.355 142.364H551.764ZM560.134 147.557V148.807H555.043V147.557H560.134ZM562.197 151.614V150.455L567.311 142.364H568.152V144.159H567.584L563.72 150.273V150.364H570.607V151.614H562.197ZM567.675 154V151.261V150.722V142.364H569.016V154H567.675Z" fill="#696969"/>
<path d="M164.077 56.3636V68H162.668V57.8409H162.599L159.759 59.7273V58.2955L162.668 56.3636H164.077Z" fill="#696969"/>
<path d="M211.861 92V90.9773L215.702 86.7727C216.152 86.2803 216.524 85.8523 216.815 85.4886C217.107 85.1212 217.323 84.7765 217.463 84.4545C217.607 84.1288 217.679 83.7879 217.679 83.4318C217.679 83.0227 217.58 82.6686 217.384 82.3693C217.19 82.0701 216.925 81.839 216.588 81.6761C216.251 81.5133 215.872 81.4318 215.452 81.4318C215.005 81.4318 214.615 81.5246 214.281 81.7102C213.952 81.892 213.696 82.1477 213.514 82.4773C213.336 82.8068 213.247 83.1932 213.247 83.6364H211.906C211.906 82.9545 212.063 82.3561 212.378 81.8409C212.692 81.3258 213.12 80.9242 213.662 80.6364C214.207 80.3485 214.819 80.2045 215.497 80.2045C216.179 80.2045 216.783 80.3485 217.31 80.6364C217.836 80.9242 218.249 81.3125 218.548 81.8011C218.848 82.2898 218.997 82.8333 218.997 83.4318C218.997 83.8598 218.92 84.2784 218.764 84.6875C218.613 85.0928 218.348 85.5455 217.969 86.0455C217.594 86.5417 217.073 87.1477 216.406 87.8636L213.793 90.6591V90.75H219.202V92H211.861Z" fill="#696969"/>
<path d="M136.543 164.159C135.793 164.159 135.124 164.03 134.537 163.773C133.954 163.515 133.49 163.157 133.145 162.699C132.804 162.237 132.618 161.701 132.588 161.091H134.02C134.05 161.466 134.179 161.79 134.406 162.062C134.634 162.331 134.931 162.54 135.298 162.688C135.666 162.835 136.073 162.909 136.52 162.909C137.02 162.909 137.463 162.822 137.849 162.648C138.236 162.473 138.539 162.231 138.759 161.92C138.978 161.61 139.088 161.25 139.088 160.841C139.088 160.413 138.982 160.036 138.77 159.71C138.558 159.381 138.247 159.123 137.838 158.938C137.429 158.752 136.929 158.659 136.338 158.659H135.406V157.409H136.338C136.8 157.409 137.205 157.326 137.554 157.159C137.906 156.992 138.181 156.758 138.378 156.455C138.579 156.152 138.679 155.795 138.679 155.386C138.679 154.992 138.592 154.65 138.418 154.358C138.243 154.066 137.997 153.839 137.679 153.676C137.365 153.513 136.993 153.432 136.565 153.432C136.164 153.432 135.785 153.506 135.429 153.653C135.077 153.797 134.789 154.008 134.565 154.284C134.342 154.557 134.221 154.886 134.202 155.273H132.838C132.861 154.663 133.045 154.129 133.389 153.67C133.734 153.208 134.185 152.848 134.741 152.591C135.302 152.333 135.918 152.205 136.588 152.205C137.308 152.205 137.925 152.35 138.44 152.642C138.955 152.93 139.351 153.311 139.628 153.784C139.904 154.258 140.043 154.769 140.043 155.318C140.043 155.973 139.87 156.532 139.526 156.994C139.185 157.456 138.721 157.777 138.134 157.955V158.045C138.868 158.167 139.442 158.479 139.855 158.983C140.268 159.483 140.474 160.102 140.474 160.841C140.474 161.473 140.302 162.042 139.957 162.545C139.616 163.045 139.151 163.439 138.56 163.727C137.969 164.015 137.296 164.159 136.543 164.159Z" fill="#696969"/>
<path d="M211.299 161.614V160.455L216.413 152.364H217.254V154.159H216.685L212.822 160.273V160.364H219.708V161.614H211.299ZM216.776 164V161.261V160.722V152.364H218.117V164H216.776Z" fill="#696969"/>
<path d="M164.077 104.364V116H162.668V105.841H162.599L159.759 107.727V106.295L162.668 104.364H164.077Z" fill="#696969"/>
<path d="M114.077 104.364V116H112.668V105.841H112.599L109.759 107.727V106.295L112.668 104.364H114.077Z" fill="#696969"/>
<circle cx="82" cy="23" r="9" fill="#256DF8"/>
<path d="M83.5687 18.844V27.5713H81.7235V20.5954H81.6724L79.6738 21.8483V20.2119L81.8343 18.844H83.5687Z" fill="white"/>
<circle cx="416" cy="23" r="9" fill="#256DF8"/>
<path d="M412.928 27.5713V26.2417L416.035 23.3653C416.299 23.1096 416.52 22.8795 416.699 22.675C416.881 22.4704 417.019 22.2702 417.113 22.0741C417.206 21.8753 417.253 21.6608 417.253 21.4307C417.253 21.175 417.195 20.9548 417.079 20.7702C416.962 20.5827 416.803 20.4392 416.601 20.3398C416.4 20.2375 416.171 20.1863 415.915 20.1863C415.648 20.1863 415.415 20.2403 415.216 20.3483C415.018 20.4562 414.864 20.6111 414.756 20.8128C414.648 21.0145 414.594 21.2545 414.594 21.5329H412.843C412.843 20.9619 412.972 20.4662 413.231 20.0457C413.489 19.6253 413.851 19.3 414.317 19.0699C414.783 18.8398 415.32 18.7247 415.928 18.7247C416.553 18.7247 417.097 18.8355 417.56 19.0571C418.026 19.2758 418.388 19.5798 418.647 19.969C418.905 20.3582 419.035 20.8042 419.035 21.3071C419.035 21.6366 418.969 21.9619 418.839 22.2829C418.711 22.604 418.482 22.9605 418.153 23.3525C417.823 23.7417 417.358 24.2091 416.759 24.7545L415.485 26.0031V26.0628H419.15V27.5713H412.928Z" fill="white"/>
<circle cx="750" cy="23" r="9" fill="#256DF8"/>
<path d="M749.978 27.6906C749.342 27.6906 748.775 27.5812 748.278 27.3625C747.784 27.1409 747.393 26.8369 747.106 26.4506C746.822 26.0613 746.676 25.6125 746.667 25.104H748.525C748.536 25.317 748.606 25.5045 748.734 25.6665C748.865 25.8256 749.038 25.9491 749.254 26.0372C749.47 26.1253 749.713 26.1693 749.982 26.1693C750.264 26.1693 750.512 26.1196 750.728 26.0202C750.944 25.9207 751.113 25.7829 751.235 25.6068C751.357 25.4307 751.419 25.2275 751.419 24.9974C751.419 24.7645 751.353 24.5585 751.222 24.3795C751.095 24.1977 750.91 24.0557 750.669 23.9534C750.43 23.8511 750.146 23.8 749.816 23.8H749.002V22.4449H749.816C750.095 22.4449 750.34 22.3966 750.553 22.3C750.769 22.2034 750.937 22.0699 751.056 21.8994C751.176 21.7261 751.235 21.5244 751.235 21.2943C751.235 21.0756 751.183 20.8838 751.078 20.719C750.975 20.5514 750.83 20.4207 750.643 20.327C750.458 20.2332 750.242 20.1863 749.995 20.1863C749.745 20.1863 749.517 20.2318 749.309 20.3227C749.102 20.4108 748.936 20.5372 748.811 20.702C748.686 20.8667 748.619 21.0599 748.61 21.2815H746.842C746.85 20.7787 746.994 20.3355 747.272 19.952C747.551 19.5684 747.926 19.2687 748.397 19.0528C748.872 18.8341 749.407 18.7247 750.004 18.7247C750.606 18.7247 751.133 18.8341 751.585 19.0528C752.036 19.2716 752.387 19.567 752.637 19.9392C752.89 20.3085 753.015 20.7233 753.012 21.1835C753.015 21.6721 752.863 22.0798 752.556 22.4065C752.252 22.7332 751.856 22.9406 751.367 23.0287V23.0969C752.009 23.1792 752.498 23.4023 752.833 23.7659C753.171 24.1267 753.339 24.5784 753.336 25.121C753.339 25.6182 753.195 26.0599 752.906 26.4463C752.619 26.8327 752.222 27.1366 751.717 27.3582C751.211 27.5798 750.632 27.6906 749.978 27.6906Z" fill="white"/>
<line x1="859.5" y1="177" x2="859.5" y2="110" stroke="#256DF8"/>
<path d="M100.868 20.272H113.174V21.336H100.868V20.272ZM107.686 20.692C108.596 24.08 110.5 26.908 113.412 28.112C113.146 28.35 112.796 28.798 112.614 29.092C109.59 27.664 107.686 24.71 106.636 20.944L107.686 20.692ZM106.454 16.254H107.588C107.532 19.922 107.504 26.306 101.386 29.106C101.218 28.826 100.882 28.448 100.588 28.238C106.538 25.648 106.426 19.614 106.454 16.254ZM123.912 18.606L124.948 18.956C123.254 22.148 120.734 24.906 118.046 26.712C117.864 26.502 117.458 26.096 117.206 25.9C119.936 24.262 122.386 21.574 123.912 18.606ZM117.78 20.314L118.522 19.642C121.098 21.238 124.15 23.632 125.592 25.396L124.752 26.18C123.38 24.43 120.384 21.952 117.78 20.314ZM115.316 17.108H126.992V18.116H116.352V29.148H115.316V17.108ZM115.988 27.328L127.314 27.328V28.35L115.988 28.35V27.328ZM134.51 17.318H140.628V18.298H134.51V17.318ZM133.908 20.664H141.37V21.644H133.908V20.664ZM136.89 21.14H137.954V27.776C137.954 28.378 137.842 28.686 137.436 28.868C137.016 29.05 136.372 29.064 135.392 29.064C135.35 28.756 135.21 28.308 135.07 27.986C135.784 28.014 136.442 28.014 136.638 28C136.834 27.986 136.89 27.944 136.89 27.762V21.14ZM138.906 23.464L139.802 23.184C140.474 24.542 141.16 26.32 141.398 27.426L140.432 27.776C140.208 26.67 139.564 24.85 138.906 23.464ZM134.874 23.212L135.826 23.436C135.406 25.046 134.692 26.684 133.936 27.762C133.754 27.608 133.32 27.328 133.096 27.202C133.866 26.208 134.496 24.696 134.874 23.212ZM128.686 19.208L133.698 19.208V20.202L128.686 20.202V19.208ZM130.828 16.24L131.864 16.24V29.106H130.828V16.24ZM130.688 19.796L131.402 20.02C130.94 22.092 129.96 24.668 128.91 25.984C128.798 25.704 128.518 25.256 128.322 25.004C129.302 23.856 130.268 21.616 130.688 19.796ZM131.794 20.496C132.13 20.86 133.474 22.568 133.768 22.96L133.138 23.8C132.788 23.128 131.682 21.49 131.262 20.972L131.794 20.496ZM145.64 17.752V20.006H152.458V17.752H145.64ZM144.618 16.828H153.536V20.944H144.618V16.828ZM142.672 22.022H155.286V23.002H142.672V22.022ZM145.668 24.234H152.808V25.214H145.668V24.234ZM152.43 24.234H153.55C153.55 24.234 153.522 24.57 153.494 24.724C153.13 27.188 152.794 28.28 152.262 28.742C151.926 29.036 151.59 29.106 151.044 29.134C150.568 29.162 149.644 29.134 148.664 29.078C148.636 28.784 148.496 28.364 148.3 28.084C149.294 28.168 150.316 28.182 150.694 28.182C151.03 28.182 151.212 28.168 151.38 28.056C151.8 27.72 152.122 26.684 152.416 24.388L152.43 24.234ZM145.934 22.288L147.04 22.456C146.662 23.688 146.144 25.214 145.738 26.18L144.618 25.984C145.038 25.018 145.584 23.464 145.934 22.288ZM156.896 18.578L161.824 18.578V19.558L156.896 19.558V18.578ZM156.588 21.812L161.992 21.812V22.82L156.588 22.82V21.812ZM158.898 16.394H159.906V20.93C159.906 23.394 159.696 26.824 157.246 28.98C157.106 28.77 156.756 28.42 156.504 28.252C158.814 26.348 158.898 23.114 158.898 20.944V16.394ZM159.668 23.492C160.13 23.926 161.712 25.83 162.076 26.278L161.348 27.062C160.886 26.32 159.556 24.598 159.024 23.982L159.668 23.492ZM162.65 16.926H168.572V24.374H167.536V17.85H163.672V24.374H162.65V16.926ZM165.59 23.954H166.528V27.524C166.528 27.902 166.654 27.986 166.99 27.986H167.984C168.432 27.986 168.516 27.622 168.572 25.69C168.81 25.886 169.174 26.026 169.426 26.082C169.314 28.28 169.146 28.826 167.998 28.826H166.864C165.954 28.826 165.59 28.574 165.59 27.636V23.954ZM165.128 19.054H166.108V21.756C166.108 24.15 165.478 27.216 161.796 29.106C161.684 28.91 161.348 28.518 161.138 28.35C164.68 26.544 165.128 23.898 165.128 21.742V19.054ZM174.508 26.404L175.152 25.76C176.02 26.432 177.154 27.398 177.714 28.014L177.042 28.784C176.496 28.154 175.39 27.118 174.508 26.404ZM171.442 16.996L177.476 16.996V25.466H176.454V17.948L172.422 17.948V25.494L171.442 25.494V16.996ZM181.676 16.352H182.698V27.636C182.698 28.364 182.516 28.672 182.068 28.854C181.606 29.022 180.822 29.05 179.534 29.05C179.478 28.756 179.31 28.28 179.142 27.986C180.15 28.014 181.032 28 181.298 28C181.564 27.986 181.676 27.902 181.676 27.636V16.352ZM179.058 17.514H180.052V25.9H179.058V17.514ZM173.92 18.914L174.914 18.914V22.904C174.914 25.06 174.41 27.608 171.26 29.148C171.162 28.924 170.826 28.518 170.616 28.364C173.556 26.908 173.92 24.808 173.92 22.89V18.914Z" fill="#696969"/>
<path d="M440.482 16.45H441.616V27.664C441.616 28.448 441.406 28.756 440.902 28.924C440.398 29.106 439.53 29.134 438.2 29.134C438.144 28.826 437.948 28.336 437.766 28.028C438.802 28.07 439.81 28.056 440.09 28.042C440.384 28.042 440.482 27.944 440.482 27.664V16.45ZM443.87 20.02L444.878 19.628C446.096 21.602 447.286 24.164 447.65 25.858L446.53 26.306C446.194 24.654 445.06 22.022 443.87 20.02ZM436.814 19.726L437.99 19.922C437.528 21.98 436.716 24.514 435.442 26.082C435.19 25.886 434.728 25.634 434.448 25.522C435.694 24.038 436.464 21.616 436.814 19.726ZM457.912 18.606L458.948 18.956C457.254 22.148 454.734 24.906 452.046 26.712C451.864 26.502 451.458 26.096 451.206 25.9C453.936 24.262 456.386 21.574 457.912 18.606ZM451.78 20.314L452.522 19.642C455.098 21.238 458.15 23.632 459.592 25.396L458.752 26.18C457.38 24.43 454.384 21.952 451.78 20.314ZM449.316 17.108H460.992V18.116H450.352V29.148H449.316V17.108ZM449.988 27.328L461.314 27.328V28.35L449.988 28.35V27.328ZM468.51 17.318H474.628V18.298H468.51V17.318ZM467.908 20.664H475.37V21.644H467.908V20.664ZM470.89 21.14H471.954V27.776C471.954 28.378 471.842 28.686 471.436 28.868C471.016 29.05 470.372 29.064 469.392 29.064C469.35 28.756 469.21 28.308 469.07 27.986C469.784 28.014 470.442 28.014 470.638 28C470.834 27.986 470.89 27.944 470.89 27.762V21.14ZM472.906 23.464L473.802 23.184C474.474 24.542 475.16 26.32 475.398 27.426L474.432 27.776C474.208 26.67 473.564 24.85 472.906 23.464ZM468.874 23.212L469.826 23.436C469.406 25.046 468.692 26.684 467.936 27.762C467.754 27.608 467.32 27.328 467.096 27.202C467.866 26.208 468.496 24.696 468.874 23.212ZM462.686 19.208L467.698 19.208V20.202L462.686 20.202V19.208ZM464.828 16.24L465.864 16.24V29.106H464.828V16.24ZM464.688 19.796L465.402 20.02C464.94 22.092 463.96 24.668 462.91 25.984C462.798 25.704 462.518 25.256 462.322 25.004C463.302 23.856 464.268 21.616 464.688 19.796ZM465.794 20.496C466.13 20.86 467.474 22.568 467.768 22.96L467.138 23.8C466.788 23.128 465.682 21.49 465.262 20.972L465.794 20.496ZM479.64 17.752V20.006H486.458V17.752H479.64ZM478.618 16.828H487.536V20.944H478.618V16.828ZM476.672 22.022H489.286V23.002H476.672V22.022ZM479.668 24.234H486.808V25.214H479.668V24.234ZM486.43 24.234H487.55C487.55 24.234 487.522 24.57 487.494 24.724C487.13 27.188 486.794 28.28 486.262 28.742C485.926 29.036 485.59 29.106 485.044 29.134C484.568 29.162 483.644 29.134 482.664 29.078C482.636 28.784 482.496 28.364 482.3 28.084C483.294 28.168 484.316 28.182 484.694 28.182C485.03 28.182 485.212 28.168 485.38 28.056C485.8 27.72 486.122 26.684 486.416 24.388L486.43 24.234ZM479.934 22.288L481.04 22.456C480.662 23.688 480.144 25.214 479.738 26.18L478.618 25.984C479.038 25.018 479.584 23.464 479.934 22.288ZM490.896 18.578L495.824 18.578V19.558L490.896 19.558V18.578ZM490.588 21.812L495.992 21.812V22.82L490.588 22.82V21.812ZM492.898 16.394H493.906V20.93C493.906 23.394 493.696 26.824 491.246 28.98C491.106 28.77 490.756 28.42 490.504 28.252C492.814 26.348 492.898 23.114 492.898 20.944V16.394ZM493.668 23.492C494.13 23.926 495.712 25.83 496.076 26.278L495.348 27.062C494.886 26.32 493.556 24.598 493.024 23.982L493.668 23.492ZM496.65 16.926H502.572V24.374H501.536V17.85H497.672V24.374H496.65V16.926ZM499.59 23.954H500.528V27.524C500.528 27.902 500.654 27.986 500.99 27.986H501.984C502.432 27.986 502.516 27.622 502.572 25.69C502.81 25.886 503.174 26.026 503.426 26.082C503.314 28.28 503.146 28.826 501.998 28.826H500.864C499.954 28.826 499.59 28.574 499.59 27.636V23.954ZM499.128 19.054H500.108V21.756C500.108 24.15 499.478 27.216 495.796 29.106C495.684 28.91 495.348 28.518 495.138 28.35C498.68 26.544 499.128 23.898 499.128 21.742V19.054ZM508.508 26.404L509.152 25.76C510.02 26.432 511.154 27.398 511.714 28.014L511.042 28.784C510.496 28.154 509.39 27.118 508.508 26.404ZM505.442 16.996L511.476 16.996V25.466H510.454V17.948L506.422 17.948V25.494L505.442 25.494V16.996ZM515.676 16.352H516.698V27.636C516.698 28.364 516.516 28.672 516.068 28.854C515.606 29.022 514.822 29.05 513.534 29.05C513.478 28.756 513.31 28.28 513.142 27.986C514.15 28.014 515.032 28 515.298 28C515.564 27.986 515.676 27.902 515.676 27.636V16.352ZM513.058 17.514H514.052V25.9H513.058V17.514ZM507.92 18.914L508.914 18.914V22.904C508.914 25.06 508.41 27.608 505.26 29.148C505.162 28.924 504.826 28.518 504.616 28.364C507.556 26.908 507.92 24.808 507.92 22.89V18.914Z" fill="#696969"/>
<path d="M776.89 16.24H777.884V25.998H776.89V16.24ZM772.48 22.022L780.026 18.844L780.418 19.74L772.886 22.946L772.48 22.022ZM773.992 17.556H775V26.922C775 27.692 775.168 27.86 776.106 27.86C776.568 27.86 778.92 27.86 779.48 27.86C780.306 27.86 780.446 27.482 780.544 25.872C780.796 26.04 781.202 26.208 781.496 26.264C781.328 28.196 780.992 28.812 779.522 28.812C779.144 28.812 776.428 28.812 776.078 28.812C774.468 28.812 773.992 28.434 773.992 26.908V17.556ZM779.844 18.984H779.718L779.97 18.774L780.152 18.62L780.894 18.9L780.852 19.096C780.852 21.728 780.81 23.828 780.712 24.374C780.628 24.934 780.362 25.2 779.956 25.298C779.578 25.396 779.018 25.396 778.64 25.396C778.598 25.116 778.514 24.724 778.388 24.486C778.71 24.5 779.172 24.5 779.326 24.5C779.536 24.5 779.676 24.444 779.746 24.122C779.83 23.758 779.844 21.77 779.844 18.984ZM768.574 19.614H773.026V20.608H768.574V19.614ZM770.38 16.408H771.374V25.494H770.38V16.408ZM768.448 25.858C769.582 25.438 771.304 24.71 772.97 23.996L773.194 24.934C771.696 25.648 770.114 26.362 768.868 26.894L768.448 25.858ZM787.614 18.62H794.306V23.24H793.326V19.614H787.614V18.62ZM787.194 22.694H795.3V23.702H787.194V22.694ZM791.576 23.072C792.178 25.48 793.48 27.37 795.538 28.224C795.3 28.448 794.978 28.868 794.81 29.148C792.64 28.112 791.352 26.026 790.666 23.268L791.576 23.072ZM790.162 16.394H791.17V21.168C791.17 24.192 790.708 27.188 786.746 29.148C786.62 28.91 786.284 28.532 786.046 28.35C789.756 26.558 790.162 23.87 790.162 21.168V16.394ZM782.728 19.614H786.956V20.608H782.728V19.614ZM784.408 16.408H785.402V25.494L784.408 25.494V16.408ZM782.49 25.732C783.61 25.326 785.304 24.598 786.942 23.898L787.18 24.836C785.696 25.536 784.128 26.236 782.91 26.782L782.49 25.732ZM802.314 21.924L803.098 21.364C804.526 22.596 806.346 24.346 807.242 25.438L806.374 26.11C805.534 25.004 803.742 23.212 802.314 21.924ZM802.468 16.24H803.546V18.984C803.546 21.224 803.14 24.178 799.528 26.292C799.388 26.068 799.024 25.69 798.786 25.508C802.286 23.618 802.468 20.916 802.468 18.984V16.24ZM797.372 18.634L808.082 18.634V19.67H798.422V29.148H797.372V18.634ZM807.606 18.634H808.642V27.734C808.642 28.42 808.474 28.756 807.998 28.938C807.508 29.106 806.64 29.12 805.38 29.12C805.338 28.826 805.17 28.336 805.03 28.042C806.024 28.084 806.976 28.084 807.256 28.07C807.522 28.056 807.606 27.972 807.606 27.734V18.634ZM816.51 17.318H822.628V18.298H816.51V17.318ZM815.908 20.664H823.37V21.644H815.908V20.664ZM818.89 21.14H819.954V27.776C819.954 28.378 819.842 28.686 819.436 28.868C819.016 29.05 818.372 29.064 817.392 29.064C817.35 28.756 817.21 28.308 817.07 27.986C817.784 28.014 818.442 28.014 818.638 28C818.834 27.986 818.89 27.944 818.89 27.762V21.14ZM820.906 23.464L821.802 23.184C822.474 24.542 823.16 26.32 823.398 27.426L822.432 27.776C822.208 26.67 821.564 24.85 820.906 23.464ZM816.874 23.212L817.826 23.436C817.406 25.046 816.692 26.684 815.936 27.762C815.754 27.608 815.32 27.328 815.096 27.202C815.866 26.208 816.496 24.696 816.874 23.212ZM810.686 19.208H815.698V20.202H810.686V19.208ZM812.828 16.24H813.864V29.106H812.828V16.24ZM812.688 19.796L813.402 20.02C812.94 22.092 811.96 24.668 810.91 25.984C810.798 25.704 810.518 25.256 810.322 25.004C811.302 23.856 812.268 21.616 812.688 19.796ZM813.794 20.496C814.13 20.86 815.474 22.568 815.768 22.96L815.138 23.8C814.788 23.128 813.682 21.49 813.262 20.972L813.794 20.496ZM827.64 17.752V20.006H834.458V17.752H827.64ZM826.618 16.828H835.536V20.944H826.618V16.828ZM824.672 22.022L837.286 22.022V23.002L824.672 23.002V22.022ZM827.668 24.234L834.808 24.234V25.214L827.668 25.214V24.234ZM834.43 24.234H835.55C835.55 24.234 835.522 24.57 835.494 24.724C835.13 27.188 834.794 28.28 834.262 28.742C833.926 29.036 833.59 29.106 833.044 29.134C832.568 29.162 831.644 29.134 830.664 29.078C830.636 28.784 830.496 28.364 830.3 28.084C831.294 28.168 832.316 28.182 832.694 28.182C833.03 28.182 833.212 28.168 833.38 28.056C833.8 27.72 834.122 26.684 834.416 24.388L834.43 24.234ZM827.934 22.288L829.04 22.456C828.662 23.688 828.144 25.214 827.738 26.18L826.618 25.984C827.038 25.018 827.584 23.464 827.934 22.288ZM838.896 18.578L843.824 18.578V19.558L838.896 19.558V18.578ZM838.588 21.812L843.992 21.812V22.82L838.588 22.82V21.812ZM840.898 16.394H841.906V20.93C841.906 23.394 841.696 26.824 839.246 28.98C839.106 28.77 838.756 28.42 838.504 28.252C840.814 26.348 840.898 23.114 840.898 20.944V16.394ZM841.668 23.492C842.13 23.926 843.712 25.83 844.076 26.278L843.348 27.062C842.886 26.32 841.556 24.598 841.024 23.982L841.668 23.492ZM844.65 16.926H850.572V24.374H849.536V17.85H845.672V24.374H844.65V16.926ZM847.59 23.954H848.528V27.524C848.528 27.902 848.654 27.986 848.99 27.986H849.984C850.432 27.986 850.516 27.622 850.572 25.69C850.81 25.886 851.174 26.026 851.426 26.082C851.314 28.28 851.146 28.826 849.998 28.826H848.864C847.954 28.826 847.59 28.574 847.59 27.636V23.954ZM847.128 19.054H848.108V21.756C848.108 24.15 847.478 27.216 843.796 29.106C843.684 28.91 843.348 28.518 843.138 28.35C846.68 26.544 847.128 23.898 847.128 21.742V19.054ZM856.508 26.404L857.152 25.76C858.02 26.432 859.154 27.398 859.714 28.014L859.042 28.784C858.496 28.154 857.39 27.118 856.508 26.404ZM853.442 16.996H859.476V25.466H858.454V17.948H854.422V25.494H853.442V16.996ZM863.676 16.352H864.698V27.636C864.698 28.364 864.516 28.672 864.068 28.854C863.606 29.022 862.822 29.05 861.534 29.05C861.478 28.756 861.31 28.28 861.142 27.986C862.15 28.014 863.032 28 863.298 28C863.564 27.986 863.676 27.902 863.676 27.636V16.352ZM861.058 17.514H862.052V25.9H861.058V17.514ZM855.92 18.914H856.914V22.904C856.914 25.06 856.41 27.608 853.26 29.148C853.162 28.924 852.826 28.518 852.616 28.364C855.556 26.908 855.92 24.808 855.92 22.89V18.914Z" fill="#696969"/>
</svg>
