<svg width="994" height="260" viewBox="0 0 994 260" fill="none" xmlns="http://www.w3.org/2000/svg">
<mask id="path-1-inside-1_1227_3388" fill="white">
<path d="M47 88H239V172H47V88Z"/>
</mask>
<path d="M47 88H239V172H47V88Z" fill="#A6A6A6" fill-opacity="0.09"/>
<path d="M47 91H239V85H47V91ZM239 169H47V175H239V169Z" fill="#256DF8" mask="url(#path-1-inside-1_1227_3388)"/>
<mask id="path-3-inside-2_1227_3388" fill="white">
<path d="M370 104H562V156H370V104Z"/>
</mask>
<path d="M370 104H562V156H370V104Z" fill="#A6A6A6" fill-opacity="0.09"/>
<path d="M370 107H562V101H370V107ZM562 153H370V159H562V153Z" fill="#256DF8" mask="url(#path-3-inside-2_1227_3388)"/>
<mask id="path-5-inside-3_1227_3388" fill="white">
<path d="M693 116H885V143H693V116Z"/>
</mask>
<path d="M693 116H885V143H693V116Z" fill="#D9D9D9" fill-opacity="0.35"/>
<path d="M693 119H885V113H693V119ZM885 140H693V146H885V140Z" fill="#256DF8" mask="url(#path-5-inside-3_1227_3388)"/>
<line x1="47" y1="129.5" x2="239" y2="129.5" stroke="#256DF8" stroke-dasharray="15 15"/>
<path d="M249 90H271" stroke="#256DF8" stroke-linecap="square"/>
<path d="M263 93L269 87" stroke="#256DF8" stroke-linecap="square"/>
<path d="M263 173L269 167" stroke="#256DF8" stroke-linecap="square"/>
<path d="M266 85L266 175" stroke="#256DF8" stroke-linecap="square"/>
<path d="M249 170H271" stroke="#256DF8" stroke-linecap="square"/>
<path d="M567 104.167H589" stroke="#256DF8" stroke-linecap="square"/>
<path d="M581 106.066L587 102" stroke="#256DF8" stroke-linecap="square"/>
<path d="M581 157.733L587 153" stroke="#256DF8" stroke-linecap="square"/>
<path d="M584 101L584 158" stroke="#256DF8" stroke-linecap="square"/>
<path d="M567 154.833H589" stroke="#256DF8" stroke-linecap="square"/>
<path d="M890 115.611H912" stroke="#256DF8" stroke-linecap="square"/>
<path d="M904 118.355L910 114" stroke="#256DF8" stroke-linecap="square"/>
<path d="M904 143.355L909 139" stroke="#256DF8" stroke-linecap="square"/>
<path d="M907 114L907 143" stroke="#256DF8" stroke-linecap="square"/>
<path d="M890 141.389H912" stroke="#256DF8" stroke-linecap="square"/>
<line x1="370" y1="129.5" x2="562" y2="129.5" stroke="#256DF8" stroke-dasharray="15 15"/>
<line x1="693" y1="129.5" x2="885" y2="129.5" stroke="#256DF8" stroke-dasharray="15 15"/>
<path d="M277 114.112L278.523 114.112L282.483 118.152C282.873 118.538 283.22 118.86 283.523 119.118C283.826 119.375 284.119 119.569 284.403 119.697C284.687 119.826 284.991 119.891 285.312 119.891C285.68 119.891 285.994 119.807 286.256 119.641C286.521 119.474 286.725 119.245 286.869 118.953C287.013 118.661 287.085 118.33 287.085 117.959C287.085 117.576 287.006 117.241 286.847 116.953C286.691 116.665 286.47 116.442 286.182 116.283C285.894 116.127 285.551 116.05 285.153 116.05L285.153 114.044C285.892 114.044 286.534 114.213 287.08 114.55C287.625 114.887 288.047 115.351 288.347 115.942C288.646 116.536 288.795 117.218 288.795 117.987C288.795 118.768 288.65 119.453 288.358 120.044C288.066 120.635 287.667 121.093 287.159 121.419C286.652 121.749 286.072 121.913 285.42 121.913C284.985 121.913 284.557 121.83 284.136 121.663C283.716 121.497 283.25 121.203 282.739 120.783C282.227 120.366 281.608 119.781 280.881 119.027L278.841 117.021L278.761 117.021L278.761 122.089L277 122.089L277 114.112ZM279.159 123.589L280.835 123.589L288.636 128.527L288.636 129.925L286.25 129.925L286.25 129.072L280.983 125.749L280.892 125.749L280.892 132.641L279.159 132.641L279.159 123.589ZM277 129.141L279.67 129.141L280.42 129.163L288.636 129.163L288.636 131.152L277 131.152L277 129.141ZM288.636 134.57L288.636 137.149L280.205 140.604L280.205 140.74L288.636 144.195L288.636 146.774L277 146.774L277 144.751L284.994 144.751L284.994 144.643L277.034 141.428L277.034 139.916L285.011 136.7L285.011 136.592L277 136.592L277 134.57L288.636 134.57Z" fill="#0A54ED"/>
<path d="M615.636 119.845L604 119.845L604 117.737L613.585 117.737L613.585 117.669L611.847 114.947L613.778 114.947L615.636 117.839L615.636 119.845ZM606.159 122.589L607.835 122.589L615.636 127.527L615.636 128.925L613.25 128.925L613.25 128.072L607.983 124.749L607.892 124.749L607.892 131.641L606.159 131.641L606.159 122.589ZM604 128.141L606.67 128.141L607.42 128.163L615.636 128.163L615.636 130.152L604 130.152L604 128.141ZM615.636 133.57L615.636 136.149L607.205 139.604L607.205 139.74L615.636 143.195L615.636 145.774L604 145.774L604 143.751L611.994 143.751L611.994 143.643L604.034 140.428L604.034 138.916L612.011 135.7L612.011 135.592L604 135.592L604 133.57L615.636 133.57Z" fill="#0A54ED"/>
<path d="M939.795 121.136C939.792 121.693 939.693 122.235 939.5 122.761C939.311 123.292 939 123.769 938.568 124.193C938.14 124.617 937.566 124.955 936.847 125.205C936.127 125.455 935.237 125.58 934.176 125.58C933.176 125.583 932.282 125.477 931.494 125.261C930.71 125.049 930.047 124.744 929.506 124.347C928.964 123.949 928.551 123.47 928.267 122.909C927.983 122.348 927.841 121.718 927.841 121.017C927.841 120.282 927.985 119.631 928.273 119.062C928.561 118.498 928.955 118.042 929.455 117.693C929.955 117.345 930.527 117.131 931.17 117.051L931.17 119.125C930.708 119.231 930.341 119.447 930.068 119.773C929.799 120.102 929.665 120.517 929.665 121.017C929.665 121.824 930.015 122.445 930.716 122.881C931.417 123.316 932.39 123.534 933.636 123.534L933.636 123.455C933.303 123.269 933.015 123.028 932.773 122.733C932.534 122.437 932.35 122.102 932.222 121.727C932.093 121.356 932.028 120.962 932.028 120.545C932.028 119.864 932.191 119.25 932.517 118.705C932.843 118.163 933.29 117.733 933.858 117.415C934.426 117.1 935.076 116.941 935.807 116.937C936.564 116.937 937.244 117.112 937.847 117.46C938.453 117.812 938.93 118.303 939.278 118.932C939.631 119.561 939.803 120.295 939.795 121.136ZM938.091 121.142C938.091 120.733 937.991 120.364 937.79 120.034C937.593 119.708 937.324 119.451 936.983 119.261C936.646 119.076 936.269 118.983 935.852 118.983C935.439 118.987 935.064 119.08 934.727 119.261C934.39 119.447 934.123 119.699 933.926 120.017C933.729 120.339 933.631 120.706 933.631 121.119C933.631 121.426 933.689 121.712 933.807 121.977C933.924 122.242 934.087 122.473 934.295 122.67C934.508 122.871 934.748 123.027 935.017 123.136C935.286 123.25 935.57 123.305 935.869 123.301C936.267 123.301 936.634 123.206 936.972 123.017C937.309 122.831 937.58 122.576 937.784 122.25C937.989 121.928 938.091 121.559 938.091 121.142ZM939.636 127.585L939.636 130.165L931.205 133.619L931.205 133.756L939.636 137.21L939.636 139.79L928 139.79L928 137.767L935.994 137.767L935.994 137.659L928.034 134.443L928.034 132.932L936.011 129.716L936.011 129.608L928 129.608L928 127.585L939.636 127.585Z" fill="#0A54ED"/>
</svg>
