<svg width="994" height="201" viewBox="0 0 994 201" fill="none" xmlns="http://www.w3.org/2000/svg">
<mask id="path-1-inside-1_1227_3388" fill="white">
<path d="M47 59H239V143H47V59Z"/>
</mask>
<path d="M47 59H239V143H47V59Z" fill="#A6A6A6" fill-opacity="0.09"/>
<path d="M47 62H239V56H47V62ZM239 140H47V146H239V140Z" fill="#256DF8" mask="url(#path-1-inside-1_1227_3388)"/>
<mask id="path-3-inside-2_1227_3388" fill="white">
<path d="M370 75H562V127H370V75Z"/>
</mask>
<path d="M370 75H562V127H370V75Z" fill="#A6A6A6" fill-opacity="0.09"/>
<path d="M370 78H562V72H370V78ZM562 124H370V130H562V124Z" fill="#256DF8" mask="url(#path-3-inside-2_1227_3388)"/>
<mask id="path-5-inside-3_1227_3388" fill="white">
<path d="M693 87H885V114H693V87Z"/>
</mask>
<path d="M693 87H885V114H693V87Z" fill="#D9D9D9" fill-opacity="0.35"/>
<path d="M693 90H885V84H693V90ZM885 111H693V117H885V111Z" fill="#256DF8" mask="url(#path-5-inside-3_1227_3388)"/>
<line x1="47" y1="100.5" x2="239" y2="100.5" stroke="#256DF8" stroke-dasharray="15 15"/>
<path d="M249 61H271" stroke="#256DF8" stroke-linecap="square"/>
<path d="M263 64L269 58" stroke="#256DF8" stroke-linecap="square"/>
<path d="M263 144L269 138" stroke="#256DF8" stroke-linecap="square"/>
<path d="M266 56L266 146" stroke="#256DF8" stroke-linecap="square"/>
<path d="M249 141H271" stroke="#256DF8" stroke-linecap="square"/>
<path d="M567 75.167H589" stroke="#256DF8" stroke-linecap="square"/>
<path d="M581 77.0664L587 73" stroke="#256DF8" stroke-linecap="square"/>
<path d="M581 128.733L587 124" stroke="#256DF8" stroke-linecap="square"/>
<path d="M584 72L584 129" stroke="#256DF8" stroke-linecap="square"/>
<path d="M567 125.833H589" stroke="#256DF8" stroke-linecap="square"/>
<path d="M890 86.6113H912" stroke="#256DF8" stroke-linecap="square"/>
<path d="M904 89.3555L910 84.9998" stroke="#256DF8" stroke-linecap="square"/>
<path d="M904 114.355L909 110" stroke="#256DF8" stroke-linecap="square"/>
<path d="M907 85L907 114" stroke="#256DF8" stroke-linecap="square"/>
<path d="M890 112.389H912" stroke="#256DF8" stroke-linecap="square"/>
<line x1="370" y1="100.5" x2="562" y2="100.5" stroke="#256DF8" stroke-dasharray="15 15"/>
<line x1="693" y1="100.5" x2="885" y2="100.5" stroke="#256DF8" stroke-dasharray="15 15"/>
<path d="M277 85.1122L278.523 85.1122L282.483 89.152C282.873 89.5384 283.22 89.8603 283.523 90.1179C283.826 90.3755 284.119 90.5687 284.403 90.6974C284.687 90.8262 284.991 90.8906 285.312 90.8906C285.68 90.8906 285.994 90.8073 286.256 90.6406C286.521 90.474 286.725 90.2448 286.869 89.9531C287.013 89.6615 287.085 89.33 287.085 88.9588C287.085 88.5762 287.006 88.241 286.847 87.9531C286.691 87.6652 286.47 87.4418 286.182 87.2827C285.894 87.1274 285.551 87.0497 285.153 87.0497L285.153 85.044C285.892 85.044 286.534 85.2126 287.08 85.5497C287.625 85.8868 288.047 86.3509 288.347 86.9418C288.646 87.5365 288.795 88.2183 288.795 88.9872C288.795 89.7675 288.65 90.4531 288.358 91.044C288.066 91.6349 287.667 92.0933 287.159 92.419C286.652 92.7486 286.072 92.9134 285.42 92.9134C284.985 92.9134 284.557 92.83 284.136 92.6634C283.716 92.4967 283.25 92.2031 282.739 91.7827C282.227 91.366 281.608 90.7808 280.881 90.027L278.841 88.0213L278.761 88.0213L278.761 93.0895L277 93.0895L277 85.1122ZM279.159 94.5895L280.835 94.5895L288.636 99.527L288.636 100.925L286.25 100.925L286.25 100.072L280.983 96.7486L280.892 96.7486L280.892 103.641L279.159 103.641L279.159 94.5895ZM277 100.141L279.67 100.141L280.42 100.163L288.636 100.163L288.636 102.152L277 102.152L277 100.141ZM288.636 105.57L288.636 108.149L280.205 111.604L280.205 111.74L288.636 115.195L288.636 117.774L277 117.774L277 115.751L284.994 115.751L284.994 115.643L277.034 112.428L277.034 110.916L285.011 107.7L285.011 107.592L277 107.592L277 105.57L288.636 105.57Z" fill="#0A54ED"/>
<path d="M615.636 90.8452L604 90.8452L604 88.7372L613.585 88.7372L613.585 88.669L611.847 85.9474L613.778 85.9474L615.636 88.8395L615.636 90.8452ZM606.159 93.5895L607.835 93.5895L615.636 98.527L615.636 99.9247L613.25 99.9247L613.25 99.0724L607.983 95.7486L607.892 95.7486L607.892 102.641L606.159 102.641L606.159 93.5895ZM604 99.1406L606.67 99.1406L607.42 99.1634L615.636 99.1634L615.636 101.152L604 101.152L604 99.1406ZM615.636 104.57L615.636 107.149L607.205 110.604L607.205 110.74L615.636 114.195L615.636 116.774L604 116.774L604 114.751L611.994 114.751L611.994 114.643L604.034 111.428L604.034 109.916L612.011 106.7L612.011 106.592L604 106.592L604 104.57L615.636 104.57Z" fill="#0A54ED"/>
<path d="M939.795 92.1364C939.792 92.6932 939.693 93.2348 939.5 93.7614C939.311 94.2917 939 94.7689 938.568 95.1932C938.14 95.6174 937.566 95.9545 936.847 96.2045C936.127 96.4545 935.237 96.5795 934.176 96.5795C933.176 96.5833 932.282 96.4773 931.494 96.2614C930.71 96.0492 930.047 95.7443 929.506 95.3466C928.964 94.9489 928.551 94.4697 928.267 93.9091C927.983 93.3485 927.841 92.7178 927.841 92.017C927.841 91.2822 927.985 90.6307 928.273 90.0625C928.561 89.4981 928.955 89.0417 929.455 88.6932C929.955 88.3447 930.527 88.1307 931.17 88.0511L931.17 90.125C930.708 90.2311 930.341 90.447 930.068 90.7727C929.799 91.1023 929.665 91.517 929.665 92.017C929.665 92.8239 930.015 93.4451 930.716 93.8807C931.417 94.3163 932.39 94.5341 933.636 94.5341L933.636 94.4545C933.303 94.2689 933.015 94.0284 932.773 93.733C932.534 93.4375 932.35 93.1023 932.222 92.7273C932.093 92.3561 932.028 91.9621 932.028 91.5455C932.028 90.8636 932.191 90.25 932.517 89.7045C932.843 89.1629 933.29 88.733 933.858 88.4148C934.426 88.1004 935.076 87.9413 935.807 87.9375C936.564 87.9375 937.244 88.1117 937.847 88.4602C938.453 88.8125 938.93 89.303 939.278 89.9318C939.631 90.5606 939.803 91.2955 939.795 92.1364ZM938.091 92.142C938.091 91.733 937.991 91.3636 937.79 91.0341C937.593 90.7083 937.324 90.4508 936.983 90.2614C936.646 90.0758 936.269 89.983 935.852 89.983C935.439 89.9867 935.064 90.0795 934.727 90.2614C934.39 90.447 934.123 90.6989 933.926 91.017C933.729 91.339 933.631 91.7064 933.631 92.1193C933.631 92.4261 933.689 92.7121 933.807 92.9773C933.924 93.2424 934.087 93.4735 934.295 93.6705C934.508 93.8712 934.748 94.0265 935.017 94.1364C935.286 94.25 935.57 94.3049 935.869 94.3011C936.267 94.3011 936.634 94.2064 936.972 94.017C937.309 93.8314 937.58 93.5758 937.784 93.25C937.989 92.928 938.091 92.5587 938.091 92.142ZM939.636 98.5852L939.636 101.165L931.205 104.619L931.205 104.756L939.636 108.21L939.636 110.79L928 110.79L928 108.767L935.994 108.767L935.994 108.659L928.034 105.443L928.034 103.932L936.011 100.716L936.011 100.608L928 100.608L928 98.5852L939.636 98.5852Z" fill="#0A54ED"/>
</svg>
